<svg xmlns="http://www.w3.org/2000/svg"><symbol id="arrow-icon" viewBox="0 0 11 11"><path fill="#797D83" fill-rule="evenodd" d="M9.46.906H1.04a.79.79 0 0 0 0 1.58h6.515L.48 9.558a.79.79 0 1 0 1.117 1.116L8.67 3.602v6.515a.79.79 0 0 0 1.579 0V1.696a.787.787 0 0 0-.23-.557l-.001-.002-.002-.001a.787.787 0 0 0-.556-.23z" clip-rule="evenodd"/></symbol><symbol id="check-icon" viewBox="0 0 10 8"><path fill="#5ACDFA" fill-rule="evenodd" d="M9.28.47a.75.75 0 0 1 0 1.06l-5.5 5.5a.75.75 0 0 1-1.06 0l-2.5-2.5a.75.75 0 1 1 1.06-1.06l1.97 1.97L8.22.47a.75.75 0 0 1 1.06 0z" clip-rule="evenodd"/></symbol><symbol id="chevron-down-icon" viewBox="0 0 9 6"><path fill="#8C9095" fill-rule="evenodd" d="M.3.55a.595.595 0 0 1 .841 0L4.53 3.937 7.918.549a.595.595 0 1 1 .842.842l-3.81 3.81a.595.595 0 0 1-.841 0L.299 1.39A.595.595 0 0 1 .3.55z" clip-rule="evenodd"/></symbol><symbol id="copy-icon" viewBox="0 0 14 14"><path fill="#797D83" fill-rule="evenodd" d="M2.165 1.821a.433.433 0 0 1 .306-.127h5.2a.433.433 0 0 1 .434.434v.578a.722.722 0 0 0 1.444 0v-.578A1.878 1.878 0 0 0 7.671.25h-5.2A1.878 1.878 0 0 0 .594 2.128v5.2A1.878 1.878 0 0 0 2.47 9.205h.578a.722.722 0 0 0 0-1.444H2.47a.433.433 0 0 1-.433-.433v-5.2c0-.115.046-.225.127-.307zm3.918 4.352c0-.24.194-.434.433-.434h5.2c.24 0 .434.194.434.434v5.2a.433.433 0 0 1-.434.433h-5.2a.433.433 0 0 1-.433-.433v-5.2zm.433-1.878c-1.037 0-1.877.84-1.877 1.878v5.2c0 1.037.84 1.877 1.877 1.877h5.2c1.037 0 1.878-.84 1.878-1.877v-5.2c0-1.037-.84-1.878-1.878-1.878h-5.2z" clip-rule="evenodd"/></symbol></svg>