<svg width="15" height="20" viewBox="0 0 15 20" fill="none" xmlns="http://www.w3.org/2000/svg">
<path fill-rule="evenodd" clip-rule="evenodd" d="M9.54417 2.27268L7.27148 0L4.9988 2.27268L7.27148 4.54536L9.54417 2.27268ZM9.54417 17.7258L7.27148 15.4531L4.9988 17.7258L7.27148 19.9985L9.54417 17.7258ZM11.922 15.348L14.5447 12.7254C13.6932 11.8713 12.6976 11.1742 11.6038 10.6662C10.9871 10.3799 10.3432 10.1562 9.68181 9.99877C10.3433 9.84055 10.9872 9.61622 11.6038 9.32917C12.6974 8.82128 13.6929 8.1246 14.5447 7.27111L11.922 4.64844C11.0378 5.53567 9.9174 6.15035 8.69402 6.41938C7.75781 6.62562 6.78793 6.62562 5.85172 6.41938C4.62786 6.15082 3.507 5.53609 2.62267 4.64844L0 7.27111C0.851986 8.12459 1.84743 8.82159 2.94086 9.33024C3.55797 9.61643 4.20222 9.84004 4.86394 9.9977C4.20245 10.1559 3.55854 10.3802 2.94193 10.6673C1.84801 11.1752 0.852133 11.8718 0 12.7254L2.62267 15.348C3.23322 14.7373 3.9581 14.2529 4.7559 13.9224C5.5537 13.5919 6.40879 13.4218 7.27234 13.4218C8.13589 13.4218 8.99098 13.5919 9.78878 13.9224C10.5866 14.2529 11.3115 14.7373 11.922 15.348Z" fill="url(#paint0_linear_836_2555)"/>
<defs>
<linearGradient id="paint0_linear_836_2555" x1="12.8116" y1="1.24988" x2="-0.000104844" y2="24.9976" gradientUnits="userSpaceOnUse">
<stop stop-color="#8C9095"/>
<stop offset="1" stop-color="#8C9095" stop-opacity="0"/>
</linearGradient>
</defs>
</svg>
